<svg xmlns="http://www.w3.org/2000/svg" xmlns:xlink="http://www.w3.org/1999/xlink" viewBox="0 0 451.04 396.21"><defs><style>.cls-1{fill:#00cff0;}.cls-2{fill:#ff63ff;}.cls-3{fill:aqua;}.cls-4{fill:#fff;}.cls-5{fill:#99e7ff;}.cls-6{fill:url(#linear-gradient);}.cls-7{fill:#4bf6ff;}.cls-8{fill:#365e78;}.cls-9{fill:#4a7a90;}.cls-10{fill:url(#linear-gradient-2);}.cls-11{fill:#56d7e4;}.cls-12{fill:#335b78;}.cls-13{fill:#ffffdc;}.cls-14{fill:#321c45;}.cls-15{fill:url(#linear-gradient-3);}.cls-16{fill:url(#linear-gradient-4);}.cls-17{fill:#54396d;}.cls-18{fill:#00c5ff;}.cls-19{fill:#54a9ba;}.cls-20{fill:#8cffff;}.cls-21{fill:#34a4bd;}.cls-22{fill:#ca0084;}.cls-23{fill:#a5006b;}.cls-24{fill:#ff00b3;}.cls-25{fill:#fb2ca8;}</style><linearGradient id="linear-gradient" x1="45.49" y1="235.39" x2="132.35" y2="235.39" gradientUnits="userSpaceOnUse"><stop offset="0.38" stop-color="#00bdd3"/><stop offset="0.55" stop-color="#00b7cf"/><stop offset="0.77" stop-color="#00a7c5"/><stop offset="0.94" stop-color="#0094b9"/></linearGradient><linearGradient id="linear-gradient-2" x1="207.52" y1="66.36" x2="207.52" y2="316.15" gradientUnits="userSpaceOnUse"><stop offset="0.21" stop-color="#00c7da"/><stop offset="0.39" stop-color="#00c1d6"/><stop offset="0.64" stop-color="#00b1cb"/><stop offset="0.85" stop-color="#009dbd"/><stop offset="0.99" stop-color="#0086b5"/></linearGradient><linearGradient id="linear-gradient-3" x1="209.55" y1="197.01" x2="212.83" y2="197.01" gradientUnits="userSpaceOnUse"><stop offset="0.13" stop-color="#44ceec"/><stop offset="0.85" stop-color="#009db3"/></linearGradient><linearGradient id="linear-gradient-4" x1="198.77" y1="130.15" x2="256.19" y2="151.05" gradientTransform="translate(139.32 -87.04) rotate(34.7)" xlink:href="#linear-gradient"/></defs><g id="Layer_2" data-name="Layer 2"><g id="Layer_1-2" data-name="Layer 1"><polygon class="cls-1" points="175.7 5.98 177.19 2.24 255.34 63.9 249.48 74.71 308.25 142.9 301.33 158.3 350.07 219.23 346.76 221.23 257.89 140.84 267.05 129.3 223.12 84.92 230.72 66.93 175.7 5.98"/><path class="cls-2" d="M346.08,223.22l-92.29-82,6.82-9.08L217.72,86.88l9.46-19.27L174,6.62,176.65,0l85.29,61.6-4.65,12,57.53,67.51-7,15.3,44.22,63.18ZM262,140.5l76.94,69.61-41.09-51.37,6.89-15.32L245.85,75.1l5.6-10.31-64.77-52,47.59,53.43-7.61,18,44.4,44.85Z"/><circle class="cls-3" cx="384.1" cy="238.85" r="3.15"/><polygon class="cls-4" points="130.66 265.97 299.77 261.7 332.35 297.77 297.44 341.21 160.91 351.69 92.26 328.03 95.75 290.4 130.66 265.97"/><path class="cls-4" d="M267.31,344.4c22,9.53,65.92,13.89,88.89.11,23.28-14,27.63-55.24-1.08-71.22-12.07-6.72-24.11-7.64-37.15-5.68"/><path class="cls-5" d="M313,279.15a51.58,51.58,0,0,1,24.12,8s-10-12.77-22.78-15.09Z"/><path class="cls-4" d="M141.23,266c-22.37-11.53-58.62-7.51-58.18,25.6a41.83,41.83,0,0,0,5.23,19.2"/><path class="cls-6" d="M112.33,196.54C74.47,213.29,58.81,236.31,56.09,240c-5.11,6.89-11,16.86-10.58,21.93-.06,5.17,3.5.44,5,.17-.11,2.56.2,7.82,2.72,7.83,3.72.42,4.79-3.88,7.66-4.43.3,2.82,1.56,8.91,5.31,8.71,4.1.79,7.41-9.05,8.43-5.88.48,1.51,2.67,5.28,6.44,5.79,5.93.81,5.74-13.67,7-18.32a81.67,81.67,0,0,1,11.15-23.18c3.81-5.31,16.82-16.7,33.11-21.36"/><path class="cls-7" d="M50.91,265.2c1-5.4,6-13.7,10.41-19.69,2.73-3.67,27-32.2,60.42-35.69l8.81,1.79c.69-.23,1.39-.45,2.09-.65l-20-14.71C74.76,213,59.1,236,56.38,239.7c-5.11,6.89-11,16.86-10.58,21.93-.06,5.17,3.5.44,5,.17A25.11,25.11,0,0,0,50.91,265.2Z"/><path class="cls-8" d="M85.16,249.46c-1.64,1.25-3.34,3.42-5.12,3-1.94-.43-2.67-4.41-3.94-5.08-2.93-1.54-5.39,2.83-8.17,1.33-1.5-.8-.36-4.53-2.07-5.27-2.1-.89-4.65,2.11-6.61.88-1.49-1.09-1.11-6.65-1.44-6.66-.93.78-12,13.59-12.48,24.09-.06,5.17,3.27,3.26,5.22.31-.11,2.56-.11,7.63,2.53,8,3.72.43,5.73-2.53,7.85-4.56.3,2.82,1.56,8.91,5.31,8.71,4.1.79,7.79-7.84,8.43-5.88.49,1.51,2.67,5.28,6.44,5.79,5.93.81,6.71-9.5,7.39-15.6a41.45,41.45,0,0,1,2.77-11.23C90.06,247.13,88.67,246.77,85.16,249.46Z"/><path class="cls-9" d="M51.25,268.42c1.36-8.4,5.94-17.56,12-24.65-1.82.68-2.56.21-3-.17-1.49-1.09-2-5.9-2.35-5.92-.93.78-12.16,13.62-12.66,24.11-.06,5.17,3.27,3.62,5.23.68A15.12,15.12,0,0,0,51.25,268.42Z"/><path class="cls-4" d="M97.14,291.75c-14.48,0-27.59,3.68-34.49,19s-1.32,32.88,10.89,41c7.61,5,27.05,8.5,38.77,1.55"/><path class="cls-10" d="M114.84,67.71c-11.71,2.49-29,5.47-33.83,27.5-5,22.64,6.87,44.65,11.64,66,2.49,11.17,4.09,23.79,5.52,34.91,3,23.27,2,39.52,4.49,53,4,21.54,15.75,41.43,32.26,56,9.29,8.18,18.7,7.77,31.42,10.09,17.72,3.23,40.19-2.89,55.76-4.75,25.62-3.08,41.54-8.78,65.77-17.72,15.84-5.84,29.29-13.85,39.88-29.47,5.58-8.22,10.35-19.47,5.39-29.1-6.61-12.83-26.92-10.52-40.64-5.12-9,3.54-24.15,13.24-24.15,13.24s-16.23-32.06-21.82-41.14c-14.56-23.65-27.42-42-45.08-63.18-8.87-10.65-14.81-21.77-19.88-34.43-7.1-17.75-15.26-30.52-29.81-34.78C140.75,65.56,129,65.94,114.84,67.71Z"/><path class="cls-4" d="M112.64,300.18c-11.58,13.51-13.4,27.91-8.6,53.45,3.15,16.77,20.6,27.76,34.3,30.72,13.42,2.89,30.42,2.61,44.24-5.74,10.13-6.12,15.56-13.51,19.76-24.37,3.62-9.37,4-13.92,3.68-23.34"/><path class="cls-4" d="M174.45,348c9.1,18.87,29.9,28.88,54,32.86,49.18,8.09,76.72-13.29,76.72-44.27,0-8.53-4.88-30.51-14.53-34.83"/><path class="cls-11" d="M188.79,329.19c-16.57-6.57-28.57-27.09-32.28-45.13-.79-3.86-3.24-15.13,2.71-16.55,8.14-.9,10.22,10.36,9.93,9.37-.87-3,.37-9.71,4-11.11,5.55-3,10.62,6,12,9.36.27.64.65-8.86,7.64-8.49,5.25.86,6.7,5.49,7.78,8.78.22-1.63,1.44-7.14,5.82-7.12,5.09-.3,7.71,3.55,9.3,9.89,1.83,7.3,3.05,24.13,5.06,29.41,1.63,4.28-1.86,4.3.11,8.52,2.47,5.3,7.4,8.89,6.86,11C226.15,333.42,188.79,329.19,188.79,329.19Z"/><path class="cls-12" d="M217.45,308.69a182.33,182.33,0,0,1-3.35-21c-.63-7.74-2.11-13.31-7.42-13.71-4.38,0-5.87,6.39-6.09,8-1.08-3.29-3.18-11.42-8.64-11.29-6.55.32-5.71,11.72-6,11.08-1.41-3.37-6.16-13.65-12.57-11.66-6,1.65-3,13.76-3.05,13.57a5.62,5.62,0,0,1-.17-.82c-.73-2.9-4.23-12.67-10.84-11-4.38,1.38-3,11.49-2.53,13.53a62.1,62.1,0,0,0,7.25,19.36c6.34,11.12,15.19,21.88,25.69,26,0,0,33.08,3.74,38.28-1-1.11-2.19-4.59-5.31-6.54-9.5A58.63,58.63,0,0,1,217.45,308.69Z"/><path class="cls-4" d="M175.84,333.07s33.75-49.45,109.38-25l-47,38.18Z"/><path class="cls-4" d="M256.33,306.31s29.48-39.18,71.75-23.66C328.08,282.65,323,321.43,256.33,306.31Z"/><path class="cls-5" d="M302.48,335c-4.16,8.79,1.41-3.31-6.2,7.76-16.29,23.66-52.75,22.49-69.43,20.55-11.95-1.39-31.56-6.72-38.62-13.58-3.13,4.51-24.16,16.69-47.49,16.16-3.45-.08-28.11.64-36.75-23.63-29.76-2-40.94-5.73-43.25-8.56a31.55,31.55,0,0,0,12.77,18.41c6.11,4,19.73,8.66,31.12,4.5,4.36,15.32,19.51,27.08,32.5,29.88,13.41,2.88,31.61.87,45.42-7.48A44.33,44.33,0,0,0,194,369.35c19.35,31.78,61,28.67,75.66,23.8A48,48,0,0,0,302.38,353c18.31,5.54,40.93,3.77,52.9-5.54,6.86-5.34,13.85-14.31,17-22.66C368.42,330.26,342.82,338.89,302.48,335Z"/><path class="cls-7" d="M80.43,103.35c4.81-22,22.12-25,33.83-27.49,14.2-1.78,21.1-.18,24.7,1.79,14.2,7.77,20.24,16.29,27.34,34,5.07,12.66,10.77,21.81,21.82,33.16,19.26,19.76,33,36.13,47.44,59.86,8.15,13.38,28.38,67.84,28.38,67.84s27.46-16.69,37.9-20.94c20-8.11,32.45-4.81,32.64-2.39,1.4-5.18,1.51-10.36-1.05-15.33-6.61-12.82-26.92-10.51-40.64-5.11-9,3.54-19.21,10.07-19.21,10.07s-11.3-26.61-18.95-39.57c-14.87-25.21-26.68-34.38-48-60.15-5.34-6.45-13.79-19.13-20.69-32.7-8.66-17-19.34-33.68-33.89-37.94-11-3.23-22.72-2.84-36.92-1.07-11.71,2.49-29,5.46-33.83,27.5a52.61,52.61,0,0,0-1.16,9.91C80.23,104.34,80.32,103.85,80.43,103.35Z"/><ellipse class="cls-13" cx="139.18" cy="83.46" rx="8.36" ry="9.32" transform="translate(-9.31 17.98) rotate(-7.15)"/><circle class="cls-14" cx="140.98" cy="83.15" r="4.46"/><path class="cls-15" d="M212.83,196.08l-.05,0c-1.07.65-2.14,1.3-3.23,1.94C210.64,197.35,211.73,196.7,212.83,196.08Z"/><path class="cls-16" d="M304.51,147.65c1.4-2.2-3.6-2.47-4.25-4.54-.75-2.4,3.72-5.07,2.71-7.58-1.51-3.75-7.39-2.81-8.28-8.06-.54-7.48-7.13-4.94-9.33-6.33-3.67-2.31-1.27-8.61-5.66-10.62-3.66-2.19-7.07,8.29-11.32,5.07-1.59-1-4.46-7.93-8.22-4.77-5.13,4.31-5.78,16.55-8.31,22.29-9,20.45-23.46,37.57-43.64,35.83-5.38-.47-10.58,5.54-12.27,11.84-1.92,7.17,3.38,16.87,10.32,18.46C218.47,202,283,181.39,304.51,147.65Z"/><path class="cls-7" d="M251.82,133c-9,20.45-22.29,33.31-43.64,35.83a42.31,42.31,0,0,0-8.41,1.64c-7.13,2.75-5.82,7.21-2.12,7.41,35.86,1.94,48.94-21.2,58.11-42.84Z"/><path class="cls-4" d="M341.17,162.09c-2.75-2.59-4.33-7.07-4.58-11.08v0c-.25,4-1.83,8.49-4.57,11.08a12.46,12.46,0,0,1-7.65,3.29c12.15,1.93,11.09,12.43,12.22,20.94h0c1-8.09.08-19,12.23-21A12.41,12.41,0,0,1,341.17,162.09Z"/><path class="cls-4" d="M404.57,242.39a6.93,6.93,0,0,1-1.82-4.41v0a6.93,6.93,0,0,1-1.82,4.41,5,5,0,0,1-3.05,1.31c3.94.87,4.42,2.18,4.87,5.57h0c.38-3.22,1.13-4.2,4.87-5.57A5,5,0,0,1,404.57,242.39Z"/><path class="cls-4" d="M369.57,216.68a6.93,6.93,0,0,1-1.82-4.41v0a6.93,6.93,0,0,1-1.82,4.41,5,5,0,0,1-3.05,1.31c3.94.87,4.42,2.18,4.87,5.57h0c.38-3.22,1.14-4.2,4.87-5.57A4.92,4.92,0,0,1,369.57,216.68Z"/><path class="cls-4" d="M354.89,241.28a6.83,6.83,0,0,1-1.82-4.41v0a6.93,6.93,0,0,1-1.82,4.41,5,5,0,0,1-3.05,1.31c3.94.87,4.42,2.18,4.87,5.57h0c.38-3.22,1.14-4.2,4.87-5.57A4.92,4.92,0,0,1,354.89,241.28Z"/><path class="cls-4" d="M391.19,253.92a4.91,4.91,0,0,1-1.3-3.15v0a5,5,0,0,1-1.31,3.15,3.47,3.47,0,0,1-2.17.94c2.81.62,3.15,1.56,3.48,4h0c.27-2.3.81-3,3.48-4A3.53,3.53,0,0,1,391.19,253.92Z"/><path class="cls-4" d="M401.83,264.12a4.93,4.93,0,0,1-1.3-3.15v0a4.89,4.89,0,0,1-1.31,3.15,3.53,3.53,0,0,1-2.17.94c2.81.62,3.16,1.56,3.48,4h0c.27-2.3.81-3,3.48-4A3.58,3.58,0,0,1,401.83,264.12Z"/><path class="cls-4" d="M389,264.52a4.91,4.91,0,0,1-1.3-3.15v0a4.91,4.91,0,0,1-1.3,3.15,3.48,3.48,0,0,1-2.18.94c2.82.62,3.16,1.56,3.48,4h0c.28-2.3.82-3,3.49-4A3.48,3.48,0,0,1,389,264.52Z"/><path class="cls-4" d="M377,245.94a4.91,4.91,0,0,1-1.3-3.15v0a5,5,0,0,1-1.31,3.15,3.53,3.53,0,0,1-2.17.94c2.81.62,3.15,1.56,3.48,4h0c.27-2.3.81-3,3.48-4A3.58,3.58,0,0,1,377,245.94Z"/><path class="cls-4" d="M350.79,174.11a4.91,4.91,0,0,1-1.3-3.15v0a5,5,0,0,1-1.31,3.15,3.47,3.47,0,0,1-2.17.94c2.81.62,3.15,1.56,3.48,4h0c.27-2.3.81-3,3.48-4A3.53,3.53,0,0,1,350.79,174.11Z"/><path class="cls-4" d="M382.36,222.39a4.93,4.93,0,0,1-1.3-3.15v0a4.93,4.93,0,0,1-1.3,3.15,3.58,3.58,0,0,1-2.18.94c2.81.62,3.16,1.56,3.48,4h0c.27-2.3.81-3,3.48-4A3.58,3.58,0,0,1,382.36,222.39Z"/><circle class="cls-3" cx="394.16" cy="250.29" r="2.33"/><circle class="cls-3" cx="374.12" cy="229.43" r="1.55"/><circle class="cls-3" cx="362.15" cy="232.64" r="1.55"/><circle class="cls-3" cx="349.29" cy="237.07" r="1.55"/><circle class="cls-3" cx="375.45" cy="268.11" r="1.55"/><circle class="cls-3" cx="420.23" cy="300.92" r="1.55"/><circle class="cls-3" cx="439.74" cy="326.64" r="1.55"/><circle class="cls-17" cx="373.61" cy="241.75" r="1.55"/><circle class="cls-17" cx="414.38" cy="259.76" r="1.75"/><circle class="cls-3" cx="405.93" cy="286.6" r="3.16"/><circle class="cls-3" cx="447.88" cy="275.86" r="3.16"/><circle class="cls-17" cx="419.62" cy="256.37" r="1.75"/><circle class="cls-3" cx="407.79" cy="265.19" r="1.75"/><circle class="cls-3" cx="327.34" cy="175" r="1.75"/><circle class="cls-3" cx="386.76" cy="218.92" r="1.75"/><circle class="cls-3" cx="363.67" cy="246.39" r="1.75"/><circle class="cls-18" cx="377.52" cy="250.91" r="3.21"/><circle class="cls-3" cx="388.98" cy="234" r="1.75"/><circle class="cls-3" cx="336.24" cy="219.78" r="1.75"/><circle class="cls-3" cx="343.31" cy="179.46" r="1.75"/><circle class="cls-17" cx="420.63" cy="234.32" r="1.75"/><circle class="cls-17" cx="393.63" cy="265.77" r="1.75"/><circle class="cls-17" cx="437.84" cy="237.46" r="1.75"/><circle class="cls-17" cx="387.21" cy="261.95" r="1.75"/><circle class="cls-3" cx="413.8" cy="245.26" r="1.75"/><circle class="cls-3" cx="357.05" cy="213.6" r="1.75"/><circle class="cls-19" cx="400.4" cy="258.89" r="0.91"/><circle class="cls-19" cx="369.79" cy="259.48" r="1.55"/><circle class="cls-3" cx="351.29" cy="227.76" r="1.55"/><path class="cls-4" d="M364,256.72a4.7,4.7,0,0,1-.92-1.78c-.35-.82-.88-.82-1.23,0a5,5,0,0,1-1,1.85,7.28,7.28,0,0,1-1.78,1.09.5.5,0,0,0,0,.92c1.94.59,2.36,1.27,2.83,2.47.25.63.8.65,1,0,.47-1.18.9-1.83,2.9-2.63a.5.5,0,0,0,0-.93A5.86,5.86,0,0,1,364,256.72Z"/><path class="cls-4" d="M382,235.74a4.77,4.77,0,0,1-.92-1.78c-.35-.82-.87-.82-1.23,0a5.15,5.15,0,0,1-1,1.84,7.39,7.39,0,0,1-1.78,1.1.49.49,0,0,0,0,.91c1.94.59,2.35,1.27,2.82,2.47.25.63.8.65,1.05,0,.46-1.17.89-1.83,2.89-2.63a.49.49,0,0,0,0-.92A6,6,0,0,1,382,235.74Z"/><path class="cls-4" d="M368.58,235.74a4.58,4.58,0,0,1-.92-1.77c-.35-.82-.88-.82-1.23,0a5.06,5.06,0,0,1-1,1.85,7.47,7.47,0,0,1-1.78,1.09.5.5,0,0,0,0,.92,3.51,3.51,0,0,1,2.83,2.47c.25.63.79.65,1,0,.47-1.18.9-1.83,2.9-2.63a.5.5,0,0,0,0-.93A5.6,5.6,0,0,1,368.58,235.74Z"/><path class="cls-4" d="M384.1,278.31a4.78,4.78,0,0,1-.93-1.78c-.34-.82-.87-.81-1.22,0a5.3,5.3,0,0,1-1,1.85,7.47,7.47,0,0,1-1.78,1.09.5.5,0,0,0,0,.92,3.51,3.51,0,0,1,2.83,2.47c.24.62.79.64,1,0,.47-1.17.89-1.82,2.9-2.63a.49.49,0,0,0,0-.92A5.84,5.84,0,0,1,384.1,278.31Z"/><path class="cls-4" d="M416.91,278.12a3.25,3.25,0,0,1-.62-1.2c-.23-.55-.58-.54-.82,0a3.44,3.44,0,0,1-.67,1.24,5.08,5.08,0,0,1-1.19.73.33.33,0,0,0,0,.61,2.35,2.35,0,0,1,1.89,1.66c.17.42.54.43.71,0,.31-.79.59-1.22,1.94-1.76a.33.33,0,0,0,0-.62A4.07,4.07,0,0,1,416.91,278.12Z"/><path class="cls-4" d="M431.87,270.28a3.13,3.13,0,0,1-.62-1.19c-.23-.55-.59-.55-.82,0a3.36,3.36,0,0,1-.67,1.24,4.69,4.69,0,0,1-1.2.74.33.33,0,0,0,0,.61,2.34,2.34,0,0,1,1.89,1.66c.17.42.53.43.7,0,.31-.79.6-1.23,1.94-1.76a.33.33,0,0,0,0-.62A4.1,4.1,0,0,1,431.87,270.28Z"/><path class="cls-4" d="M446.35,302.18a3.13,3.13,0,0,1-.62-1.19c-.23-.55-.58-.55-.82,0a3.31,3.31,0,0,1-.67,1.23,4.81,4.81,0,0,1-1.19.74.33.33,0,0,0,0,.61,2.32,2.32,0,0,1,1.89,1.66c.17.42.54.43.7,0,.31-.79.6-1.22,1.95-1.76a.33.33,0,0,0,0-.62A4.1,4.1,0,0,1,446.35,302.18Z"/><path class="cls-4" d="M359.07,226.91a3.06,3.06,0,0,1-.62-1.19c-.23-.55-.59-.54-.82,0A3.44,3.44,0,0,1,357,227a4.94,4.94,0,0,1-1.2.73.33.33,0,0,0,0,.61,2.35,2.35,0,0,1,1.89,1.66c.17.42.53.43.7,0,.31-.79.6-1.22,1.94-1.76a.33.33,0,0,0,0-.62A4.1,4.1,0,0,1,359.07,226.91Z"/><path class="cls-3" d="M370.94,190.11c-.5-.47-.43-1.11-1-1.92-.53.71-.57,1.49-1.08,2a5.08,5.08,0,0,1-1.19.73.33.33,0,0,0,0,.61c1.72.52,1.65,1.16,2.25,2.56.58-1.41.51-1.94,2.29-2.65a.33.33,0,0,0,0-.62A4.1,4.1,0,0,1,370.94,190.11Z"/><path class="cls-3" d="M354.09,199.87c-.5-.47-.43-1.12-1-1.92-.53.71-.57,1.49-1.08,2a5.08,5.08,0,0,1-1.19.73.34.34,0,0,0,0,.62c1.72.52,1.65,1.16,2.25,2.55.58-1.4.51-1.94,2.29-2.65a.33.33,0,0,0,0-.62A3.86,3.86,0,0,1,354.09,199.87Z"/><path class="cls-4" d="M347.19,230.82c-.5-.48-.43-1.12-1-1.93-.53.71-.57,1.49-1.08,2a5.08,5.08,0,0,1-1.19.73.33.33,0,0,0,0,.61c1.72.52,1.64,1.16,2.25,2.56.58-1.4.51-1.94,2.28-2.65a.33.33,0,0,0,0-.62A4.07,4.07,0,0,1,347.19,230.82Z"/><path class="cls-4" d="M376.34,255.47c-.5-.47-.43-1.11-1-1.92-.52.71-.56,1.49-1.07,2a5.14,5.14,0,0,1-1.2.73.33.33,0,0,0,0,.61c1.72.52,1.64,1.16,2.25,2.56.58-1.41.51-1.94,2.28-2.65a.33.33,0,0,0,0-.62A3.79,3.79,0,0,1,376.34,255.47Z"/><path class="cls-4" d="M343.11,198.09a3.06,3.06,0,0,1-.62-1.19c-.24-.55-.59-.54-.82,0a3.77,3.77,0,0,1-.67,1.24,5.14,5.14,0,0,1-1.2.73.33.33,0,0,0,0,.61,2.37,2.37,0,0,1,1.9,1.66c.16.42.53.43.7,0,.31-.79.6-1.22,1.94-1.76a.33.33,0,0,0,0-.62A4,4,0,0,1,343.11,198.09Z"/><path class="cls-4" d="M416.34,255.24c-.89-.83-1.09-1.87-1.62-3.11-.61-1.44-1.53-1.43-2.14,0a9.24,9.24,0,0,1-1.75,3.24,13.49,13.49,0,0,1-3.12,1.91.87.87,0,0,0,.06,1.6c3.39,1,4.11,2.23,4.94,4.33.44,1.1,1.4,1.13,1.83,0,.81-2.06,1.56-3.2,5.07-4.6a.87.87,0,0,0,0-1.62A10.17,10.17,0,0,1,416.34,255.24Z"/><path class="cls-8" d="M247.55,141.65c1.53-2.09,4.11-5.49,6.81-4.65,2.41.74-.14,8,1.93,8.24,1.4.17,5.67.85,5.65,5.15,0,5.44,5.72.33,9,3,2.9,2.37,1.58,5.12,4,7.82,1.36,1.52,11.12-.12,6.32,9.48,10.87-4.45,24.07-17.93,23.79-23.6-.14-2.61-4.24-2-4.74-4.12-.44-1.86,3.72-5.07,2.71-7.58-1.51-3.74-5.47-2.89-6.65-6.61-.82-2.28,2.81-6.77-1.1-8.54-2.62-1.18-8.35,1.72-9.87.76-3.66-2.31-.07-10.07-4.47-12.08-3.66-2.19-10.29,7.42-12.5,6.53-1.59-1-4.46-7.93-8.23-4.77C255.05,115,253.24,122.82,252,129A57.56,57.56,0,0,1,247.55,141.65Z"/><path class="cls-20" d="M261.43,112.34c2.25.44,3.63,4.89,5.75,5.47,3.51,1.67,9.61-8.08,12.5-6.53,3.67,1.58.09,9.47,4.47,12.08,2.38,1.42,7.25-2,9.87-.76,2.38,1.09-.4,8,1.52,10.08,1.56,1.79,4.37,1.37,6,3.56.71.93.42,2.68.18,3.36.92-1.43,2.22-3.89,1.28-5.21-2-2.82-5.48-1.85-6.66-5.57-.82-2.28,2.81-6.77-1.1-8.54-2.62-1.18-8.22,1.62-9.86.76-3.08-1.6-.08-10.06-4.48-12.08-3.65-2.18-10.28,7.42-12.5,6.53-1.59-1-4.78-7.88-8.68-4.89a15.13,15.13,0,0,0-3.9,5.5C256.56,115,259.4,112,261.43,112.34Z"/><path class="cls-20" d="M299.06,145.33c.5,2.12,4.27,1.71,4.91,4.24a5.77,5.77,0,0,1-.35,2.32c1-1.33,2.57-4.35,1.8-5.46-1.49-2.14-4.61-1.3-5.11-3.42a1.63,1.63,0,0,1,.05-.81C299.59,143.39,298.86,144.5,299.06,145.33Z"/><path class="cls-5" d="M300.54,319.49s1.17,29.87-20.16,39.57l22-6S308.69,343,300.54,319.49Z"/><path class="cls-5" d="M107.65,302.55S99,305.92,94,320.28c0,0-.87-14.53,8.51-25.2C102.55,295.08,108.23,302.53,107.65,302.55Z"/><path class="cls-11" d="M123.29,322.21a66.65,66.65,0,0,1-22.61-19.93c-9-12.46-10.06-29.36-5.1-29,2.32.17,3.18,3.63,3.76,5.69-1.23-1.7-.79-11.26,3.61-12.42,2.77-.73,4.21.92,5.31,3.08-1.26-10.11,6.43-10.59,10.9-2.37,2.77,5.09,5.78,13.62,9.34,20.14,7.52,13.77,16.23,17.83,29.41,29Z"/><path class="cls-12" d="M123.93,323.48l30.49-5.12c-11.09-8.92-18.83-13.44-25.6-25.84-3.56-6.53-6.46-14-9.34-20.14-2.17-4.66-5.83-8.51-9-6.46-2.4,1.54-1.44,8.26-1.32,9.21C108,273,104.7,269,101.5,270.62c-3.54,1.83-2,12.85-1.84,13.47-.66-2.61-1.78-5.33-3.76-5.69-1.28-.24-2.15.79-2.59,2.64-.41,4.84,2.68,15.14,8,22.51A66.43,66.43,0,0,0,123.93,323.48Z"/><path class="cls-4" d="M189.23,336.37c0,14.62-35.49,16.87-58.18,12.8-17.56-3.15-34.91-15.35-34.91-30s18.76-22,36.36-23.27C160.78,293.91,189.23,321.75,189.23,336.37Z"/><path class="cls-5" d="M103.51,328.22s-3.69,26,19.39,35.1l-2.33,13.77S101.76,366.43,100.21,343C100.21,343,99.44,334,103.51,328.22Z"/><path class="cls-21" d="M83.05,128.37c.52,3.79,8.11,25.86,13.23,32.44,9.75,12.51,23.83,6.79,30.11-2.33,3.66-5.31,7.9-15.23,10.47-23.13,1.81-5.53,1.46-7.33,1.46-13.09Z"/><path class="cls-22" d="M115.92,80.52a25.12,25.12,0,0,0-24.16,4.07c-6.39,5.09-9.42,12-9.29,12.22-4.8,2.18-20.56,6-32.37,7C22,106.26,5.52,99,.87,107c-1.14,2.59-3.18,8.72,9.31,11.05,10.91,2,26.79.85,34.21.52,6.42-.29,26.28-1.5,33-1l-20.88,13s-.7,4,4,5c2.47.55,7.25-.56,14.12-2.29a73,73,0,0,1,9-1.92s9.71,24.83,29.78,22.22c0,0,27.16-3.88,27.65-38.6,0,0,.78-12.72-10-18.84A25,25,0,0,0,115.92,80.52Z"/><path class="cls-23" d="M137.05,101.42a22.67,22.67,0,0,1,3,12.36c-.49,34.73-27.65,38.6-27.65,38.6-11.92,1.56-20.19-6.58-24.93-13.43,4.57,7.07,13.11,16.36,25.78,14.71,0,0,27.16-3.87,27.65-38.6A22.55,22.55,0,0,0,137.05,101.42Z"/><path class="cls-23" d="M77.42,117.51l-13.75,8.54c4.81-.83,9.65-1.91,14.24-3,11-2.56,22.23-3.9,33.06-6.77,2.82-.75-3.49,3-.66,2.21,7.76-2.14,14.14-5.07,17.54-7.64,1.38-1.05,7.2-4.52,6.49-6.74-.86-2.73-7.14,1.75-8.92,2.72A55,55,0,0,1,104,113c-9,.88-12.55.63-23.42,1-9.88.36-20.11.58-30.1,1.17-11.15.65-21.82,1.3-32.73,1.16-7-.09-14.54-1.45-17.72-5.39.17,2.66,2.26,5.66,10.16,7.13,10.91,2,26.79.85,34.21.52C50.81,118.27,70.67,117.06,77.42,117.51Z"/><path class="cls-24" d="M77,117.51c-1.15.4-3.9,1.52-6.5,2.69-8,3.56-15.45,8.71-13.82,11.36,1.41,2.73,18.3-3.76,26.91-6,2.26-.59,6.52-1.82,10.86-2.82,10.88-2.51,25-6,29.67-12.11C111.07,116.64,88.57,116.15,77,117.51Z"/><path class="cls-23" d="M97.1,149.36c3.73,2.61,9.88,4.1,14.41,4.12a14,14,0,0,0,5.49-1.14s-3.56-14.9-10.6-19.86c-5.54-3.92-16.29-2.35-22.81-1.15C83.59,131.33,87.59,142.82,97.1,149.36Z"/><path class="cls-25" d="M14.83,112.52c18.25.08,55.71-2,65.45-2.18,7.86-.15,18.38,0,30.5-1.85,5.93-.9,10-3.49,14-6.27a20.63,20.63,0,0,1,6.36-2.36,8.68,8.68,0,0,1,5.43.94,22.3,22.3,0,0,0-3-3,23.89,23.89,0,0,1-4.4-6c-2.08-3.54-6.52-8.84-13.13-11.18a26.41,26.41,0,0,0-24.55,4.23c-6.39,5.1-9.13,11.81-9,12-4.8,2.18-20.47,4.78-32.29,5.82-28.14,2.46-44.55-3.4-49.21,4.6a12.07,12.07,0,0,0-.66,1.89C2.18,111.35,3.85,112.47,14.83,112.52Z"/><path class="cls-22" d="M82.47,96.81s8.4-5,9.29-12.22A26.93,26.93,0,0,0,82.47,96.81Z"/><path class="cls-12" d="M163.93,304.25s8.46,16.59,15.56,25.09A66.93,66.93,0,0,1,197.41,314Z"/><path class="cls-14" d="M81,104.39c-2.67,1.18-10.78,1.51-10.7.22,0-1,5.76-1.79,10.12-1.48C81.86,103.23,82.79,103.58,81,104.39Z"/><path class="cls-22" d="M80.38,103.13c-4.35-.31-10.1.53-10.12,1.48,0,.14.09.26.26.36a30,30,0,0,1,8.73-.68,4.58,4.58,0,0,1,1.32.24l.39-.14C82.78,103.58,81.85,103.24,80.38,103.13Z"/><polygon class="cls-3" points="175.89 6.05 177.38 2.31 255.53 63.97 249.66 74.78 308.44 142.97 301.52 158.37 350.26 219.3 346.94 221.3 258.08 140.91 267.24 129.37 223.3 84.99 230.91 67 175.89 6.05"/><polygon class="cls-4" points="177.37 2.3 258.86 61.98 252.99 72.78 311.77 140.98 304.84 156.38 350.27 219.31 261.4 138.92 270.56 127.37 226.63 82.99 234.24 65 177.37 2.3"/><path class="cls-8" d="M253.63,127.11c2-1,3.06-3.38,4.88-4.73a28.87,28.87,0,0,1,7.6-3.88c3.45-1.12,8.83-1.72,12.14,0,9,4.77-5.64,10.88-9.11,12.61a31.46,31.46,0,0,0-8.86,6"/><path class="cls-9" d="M258.51,125.26a24.79,24.79,0,0,1,6.9-3.85c3.45-1.12,9.53-1.74,12.84,0a7.21,7.21,0,0,1,2.19,1.67c.85-2,.36-3.3-2.56-4.76-3.35-1.67-9.79-1.34-13.24-.22a16.76,16.76,0,0,0-6.57,4.28c-3.83,3.85-3.42,6.93-3.42,6.93A21.93,21.93,0,0,1,258.51,125.26Z"/><path class="cls-8" d="M283,107.55s-.25,7.9,1.49,11.39c2.25,4.49,5.82,2.41,5.62-.93.12,3.59,0,7.67,2.14,10.72,2.44,3.52,7.46,1.85,8.37-.06.42,4,1.38,8.11,3,9,4.16,2.24,8.06-6,6.4-10a35.59,35.59,0,0,0-4.36-7s0-7.39-5.14-10.85a24.83,24.83,0,0,0-3.06-1.57c-1.76-1-1.54-3.49-3.46-5.42-5.2-5.2-11.37-2.74-16.17-1.26Z"/><path class="cls-9" d="M306.1,124.17a37,37,0,0,1,4.21,6.66,6.47,6.47,0,0,0-.34-3.12,35.57,35.57,0,0,0-4.35-7A17.12,17.12,0,0,1,306.1,124.17Z"/><path class="cls-9" d="M294.44,106.33c1.93,1.93,1.71,4.42,3.47,5.42a24.83,24.83,0,0,1,3.06,1.57,12.19,12.19,0,0,1,4.64,7.34c0-.29-.15-7.44-5.14-10.83a23.52,23.52,0,0,0-3.06-1.57c-1.76-1-1.54-3.5-3.47-5.42-5.2-5.2-11.37-2.75-16.16-1.27l2.47,2.88C284.69,103.07,289.93,101.82,294.44,106.33Z"/><path class="cls-3" d="M284.74,117.57c-1.74-3.49-1.49-11.39-1.49-11.39l-4.74-4.88-.74.24,5,6.25s-.25,7.9,1.49,11.39c2.12,4.24,5.62,2.38,5.82-.62C289.08,120.36,286.44,121,284.74,117.57Z"/><path class="cls-3" d="M304,136.2c-1.61-.87-2.57-5-3-9-.91,1.91-5.93,3.58-8.37.06-2.12-3-2-7.13-2.14-10.72a6,6,0,0,1-.45,2.13c.1,3.46.11,7.3,2.13,10.2,2.44,3.52,7.46,1.85,8.37-.06.42,4,1.38,8.11,3,9,3,1.61,5.83-2.14,6.59-5.88C309,135,306.57,137.57,304,136.2Z"/><path class="cls-3" d="M279.32,119.17a2.55,2.55,0,0,1,1,2.6c-.78,2-4.29,3.17-6.6,4.4a45.79,45.79,0,0,0-6.87,4.14c-1.28,1-2.81,3.26-4,4.65a54,54,0,0,1,6.3-3.65c2.27-1.14,9.86-4.25,11.83-7.66C281.81,122.18,281.24,120.28,279.32,119.17Z"/></g></g></svg>